<?xml version="1.0" encoding="iso-8859-1"?>
<!-- Generator: Adobe Illustrator 17.1.0, SVG Export Plug-In . SVG Version: 6.00 Build 0)  -->
<!DOCTYPE svg PUBLIC "-//W3C//DTD SVG 1.1//EN" "http://www.w3.org/Graphics/SVG/1.1/DTD/svg11.dtd">
<svg version="1.1" id="Capa_1" xmlns="http://www.w3.org/2000/svg" xmlns:xlink="http://www.w3.org/1999/xlink" x="0px"
     y="0px"
     stroke="#586CD9"
     stroke-width="9"
     viewBox="0 0 359.995 359.995" style="enable-background:new 0 0 359.995 359.995;" xml:space="preserve">
<path d="M359.569,155.517c-1.505-4.737-6.562-7.355-11.303-5.853l-16.057,5.102l-2.817-25.049
	c-5.418-48.176-13.779-72.541-29.822-86.901c-16.779-15.019-40.254-16.575-71.585-17.135c-0.054-0.001-0.107-0.001-0.161-0.001
	h-95.658c-0.054,0-0.107,0-0.161,0.001c-31.33,0.56-54.803,2.116-71.582,17.135c-16.045,14.361-24.406,38.726-29.822,86.901
	l-2.816,25.049l-16.057-5.102c-4.735-1.505-9.797,1.115-11.303,5.853c-1.505,4.737,1.115,9.797,5.853,11.303l19.457,6.182
	l-6.111,54.347c-0.006,0.048-0.011,0.096-0.017,0.145l-2.716,24.156c-1.019,9.052,1.635,17.633,7.471,24.163
	c3.79,4.24,8.584,7.235,13.967,8.802v20.745c0,15.966,12.99,28.956,28.958,28.956c15.965,0,28.954-12.989,28.954-28.956v-19.484
	h167.512v19.484c0,15.966,12.99,28.956,28.958,28.956c15.967,0,28.956-12.989,28.956-28.956v-20.745
	c5.381-1.567,10.176-4.563,13.965-8.801c5.837-6.53,8.491-15.111,7.473-24.163l-8.844-78.648l19.457-6.182
	C358.454,165.315,361.075,160.255,359.569,155.517z M78.241,305.359c0,6.041-4.914,10.956-10.954,10.956h-0.002
	c-6.041,0-10.956-4.915-10.956-10.956v-19.484h21.912V305.359z M303.667,305.359c0,6.041-4.915,10.956-10.956,10.956h-0.002
	c-6.041,0-10.956-4.915-10.956-10.956v-19.484h21.914V305.359z M322.212,263.817c-2.339,2.617-5.729,4.058-9.547,4.058h-39.912
	H47.329c-3.817,0-7.208-1.441-9.546-4.058c-2.375-2.658-3.442-6.265-3.005-10.156l1.825-16.224h39.425c4.971,0,9-4.029,9-9
	s-4.029-9-9-9H38.626l9.862-87.709c9.745-86.684,28.403-87.06,83.76-88.048h95.494c55.356,0.989,74.016,1.364,83.764,88.049
	l9.863,87.708h-37.398c-4.971,0-9,4.029-9,9s4.029,9,9,9h39.422l1.825,16.224C325.655,257.552,324.588,261.158,322.212,263.817z
	 M293.12,178.589c-24.654,5.993-66.943,9.57-113.123,9.57c-46.179,0-88.468-3.578-113.123-9.57c-4.83-1.174-7.794-6.042-6.62-10.871
	c1.173-4.83,6.044-7.793,10.871-6.62c22.995,5.589,64.712,9.062,108.872,9.062c44.16,0,85.877-3.472,108.871-9.062
	c4.832-1.173,9.697,1.79,10.871,6.62C300.913,172.547,297.95,177.414,293.12,178.589z M243.98,228.437c0,4.971-4.029,9-9,9H125.014
	c-4.971,0-9-4.029-9-9s4.029-9,9-9H234.98C239.951,219.437,243.98,223.466,243.98,228.437z M185.4,148.329
	c2.837-17.005,13.908-31.373,29.614-38.435c12.515-5.627,26.472-6.044,39.299-1.175c12.829,4.87,22.993,14.445,28.619,26.961
	c2.038,4.533,0.015,9.861-4.519,11.899c-4.533,2.036-9.86,0.015-11.899-4.519c-3.654-8.13-10.257-14.349-18.59-17.513
	c-8.331-3.164-17.399-2.893-25.528,0.763c-10.204,4.588-17.397,13.926-19.242,24.981c-0.734,4.401-4.547,7.52-8.866,7.52
	c-0.492,0-0.99-0.041-1.492-0.124C187.894,157.869,184.582,153.232,185.4,148.329z"/>
    <g>
</g>
    <g>
</g>
    <g>
</g>
    <g>
</g>
    <g>
</g>
    <g>
</g>
    <g>
</g>
    <g>
</g>
    <g>
</g>
    <g>
</g>
    <g>
</g>
    <g>
</g>
    <g>
</g>
    <g>
</g>
    <g>
</g>
</svg>
