<svg width="50" height="50" viewBox="0 0 50 50" fill="none" xmlns="http://www.w3.org/2000/svg">
<circle cx="25" cy="25" r="25" fill="#3C366B"/>
<path d="M33.05 24H16.95C16.4253 24 16 24.4253 16 24.95V25.05C16 25.5747 16.4253 26 16.95 26H33.05C33.5747 26 34 25.5747 34 25.05V24.95C34 24.4253 33.5747 24 33.05 24Z" fill="white"/>
<path d="M33.05 29H16.95C16.4253 29 16 29.4253 16 29.95V30.05C16 30.5747 16.4253 31 16.95 31H33.05C33.5747 31 34 30.5747 34 30.05V29.95C34 29.4253 33.5747 29 33.05 29Z" fill="white"/>
<path d="M33.05 19H16.95C16.4253 19 16 19.4253 16 19.95V20.05C16 20.5747 16.4253 21 16.95 21H33.05C33.5747 21 34 20.5747 34 20.05V19.95C34 19.4253 33.5747 19 33.05 19Z" fill="white"/>
</svg>
