<svg width="36" height="36" viewBox="0 0 36 36" fill="none" xmlns="http://www.w3.org/2000/svg">
<circle cx="18" cy="18" r="18" fill="#EDF2F7"/>
<path d="M18 8C15.8921 7.99989 13.8693 8.83176 12.3712 10.3148C10.8732 11.7978 10.0211 13.8122 10 15.92C10 21.4 17.05 27.5 17.35 27.76C17.5311 27.9149 17.7616 28.0001 18 28.0001C18.2384 28.0001 18.4689 27.9149 18.65 27.76C19 27.5 26 21.4 26 15.92C25.9789 13.8122 25.1268 11.7978 23.6288 10.3148C22.1307 8.83176 20.1079 7.99989 18 8ZM18 25.65C16.33 24.06 12 19.65 12 15.92C12 14.3287 12.6321 12.8026 13.7574 11.6774C14.8826 10.5521 16.4087 9.92 18 9.92C19.5913 9.92 21.1174 10.5521 22.2426 11.6774C23.3679 12.8026 24 14.3287 24 15.92C24 19.62 19.67 24.06 18 25.65Z" fill="#3C366B"/>
<path d="M18 12C17.3078 12 16.6311 12.2053 16.0555 12.5899C15.4799 12.9744 15.0313 13.5211 14.7664 14.1606C14.5015 14.8001 14.4322 15.5039 14.5673 16.1828C14.7023 16.8618 15.0356 17.4854 15.5251 17.9749C16.0146 18.4644 16.6383 18.7977 17.3172 18.9327C17.9961 19.0678 18.6999 18.9985 19.3394 18.7336C19.9789 18.4687 20.5256 18.0201 20.9101 17.4445C21.2947 16.8689 21.5 16.1922 21.5 15.5C21.5 14.5717 21.1313 13.6815 20.4749 13.0251C19.8185 12.3687 18.9283 12 18 12ZM18 17C17.7033 17 17.4133 16.912 17.1666 16.7472C16.92 16.5824 16.7277 16.3481 16.6142 16.074C16.5007 15.7999 16.4709 15.4983 16.5288 15.2074C16.5867 14.9164 16.7296 14.6491 16.9393 14.4393C17.1491 14.2296 17.4164 14.0867 17.7074 14.0288C17.9983 13.9709 18.2999 14.0006 18.574 14.1142C18.8481 14.2277 19.0824 14.42 19.2472 14.6666C19.412 14.9133 19.5 15.2033 19.5 15.5C19.5 15.8978 19.342 16.2794 19.0607 16.5607C18.7794 16.842 18.3978 17 18 17Z" fill="#3C366B"/>
</svg>
